<!-- icon666.com - MILLIONS vector ICONS FREE --><svg id="Layer_1" enable-background="new 0 0 512 512" viewBox="0 0 512 512" xmlns="http://www.w3.org/2000/svg"><path d="m488.144 221.623c-15.332-15.234-35.54-23.623-56.902-23.623h-50.233l.06-138c0-15.99-6.101-31.011-17.178-42.295-11.207-11.417-26.227-17.705-42.291-17.705-33.377 0-60.531 26.916-60.531 59.991l-.06 138.009h-49.009c-21.26 0-41.295 8.351-56.416 23.513-15.269 15.312-23.645 35.62-23.584 57.127v153.36c0 22.056-17.944 40-40 40h-20v40h360c44.112 0 80-35.888 80-80v-153.526c0-21.376-8.473-41.566-23.856-56.851zm-304.236 28.135c7.561-7.582 17.537-11.758 28.092-11.758h88.991l.077-178c0-10.841 9.402-20 20.531-20 10.917 0 19.469 8.785 19.469 19.991l-.077 178.009h90.251c22.093 0 40.758 18.535 40.758 40.474v12.526h-300v-12.415c-.03-10.858 4.198-21.096 11.908-28.827zm248.092 222.242h-10.763c6.83-11.777 10.763-25.434 10.763-40v-61h-40v61c0 22.056-17.944 40-40 40h-8.763c6.83-11.777 10.763-25.434 10.763-40v-38h-40v38c0 22.056-17.944 40-40 40h-10.763c6.83-11.777 10.763-25.434 10.763-40v-16h-40v16c0 22.056-17.944 40-40 40h-32.736c6.825-11.773 10.736-25.439 10.736-40v-101h300v101c0 22.056-17.944 40-40 40zm-392-36c0 11.046-8.954 20-20 20s-20-8.954-20-20 8.954-20 20-20 20 8.954 20 20zm36-50c-11.046 0-20-8.954-20-20s8.954-20 20-20 20 8.954 20 20-8.954 20-20 20zm-15-97c0 11.046-8.954 20-20 20s-20-8.954-20-20 8.954-20 20-20 20 8.954 20 20zm25-113c0-11.046 8.954-20 20-20s20 8.954 20 20-8.954 20-20 20-20-8.954-20-20zm-70-71c0-11.046 8.954-20 20-20s20 8.954 20 20-8.954 20-20 20-20-8.954-20-20z"></path></svg>