<!-- icon666.com - MILLIONS vector ICONS FREE --><svg id="Layer_1" enable-background="new 0 0 479.959 479.959" viewBox="0 0 479.959 479.959" xmlns="http://www.w3.org/2000/svg"><path d="m439.277 251.499c53.76-52.29 24.34-73.19 27.39-114.79 1.17-15.97-16.19-26.55-29.76-18.05-29.45 18.46-48.36 49.23-49.2 85.53-24.03-32.99-51.55-56.97-80.65-72.94-.97-18.95-5.14-37.6-12.75-55.3-8.32-19.36-28.21-31.23-49.2-29.3-48.93 4.51-92.56 31.89-115.91 76.67-47.45 20.35-88.67 58.06-114.44 108.29-11.08 21.59-8.36 47.77 6.83 66.7 34.69 43.26 77.72 70.28 123.56 82.65l-.01.03c38.04 60.64 142.75 81.22 142.39-5.87 37.991-12.979 72.561-34.337 101.57-61.4 4.96 29.77 22.49 54.75 47.82 70.62 13.56 8.5 30.91-2.08 29.75-18.05-3.05-41.6 26.37-62.5-27.39-114.79z" fill="#ffe773"></path><g fill="#fff0a6"><path d="m456.85 118.236c4.297 2.456 4.553 8.596.057 11.423-22.798 14.29-39.279 35.957-45.952 61.856-2.171 8.425-12.981 10.813-18.684 4.241-2.51-2.893-3.254-6.263-2.613-9.515 5.605-28.432 22.791-52.253 47.248-67.583 6.61-4.136 14.118-3.751 19.944-.422z"></path><path d="m284.872 129.285c-40.696-7.129-81.746-1.182-117.748 14.924-1.997.893-4.349-.02-5.241-2.018-7.359-16.486-13.895-25.44-14.006-25.883 46.308-14.957 94.72-13.223 139.225 5.344 4.397 1.836 2.463 8.456-2.23 7.633z"></path><path d="m129.197 123.319c9.37-4.035 18.664-7.076 18.69-6.97 44.623 68.125 49.67 188.663 11.48 267.97-51.452-10.377-99.796-38.642-137.78-86.01-15.19-18.93-17.91-45.11-6.83-66.7 25.77-50.23 66.99-87.94 114.44-108.29z"></path></g><path d="m76.427 334.87c4.648 5.454-2.388 12.991-8.142 8.719-16.723-12.416-32.418-27.472-46.698-45.28-15.19-18.93-17.91-45.11-6.83-66.7 28.859-56.251 77.578-97.459 133.12-115.3.173.691 5.954 8.252 13.236 24.177 1.35 2.953.078 6.448-2.843 7.867-82.565 40.123-142.577 115.261-81.843 186.517z" fill="#fff8d6"></path><path d="m287.527 375.119c.36 87.09-104.35 66.51-142.39 5.87.285-.856 61.22 21.873 142.39-5.87z" fill="#ffa4b8"></path><path d="m223.432 416.733c8.519 3.988 4.313 16.97-4.903 15.089-27.654-5.642-56.837-24.445-73.392-50.834.045-.134 4.376 1.343 14.23 3.33 21.654 4.393 23.784 2.098 27.27 5.814 10.521 11.217 23.347 20.305 36.795 26.601z" fill="#ffbfcb"></path><path d="m246.397 222.949c4.55 18.46 4.32 37.29-.04 54.93-2.23 9.01-10.38 15.37-19.67 15.5-14.76.2-29.32-3.2-42.46-9.89 1.47-21.8.82-43.92-1.9-65.3.766 0 17.95-11.229 44.37-10.87 9.33.12 17.46 6.56 19.7 15.63z" fill="#ffa4b8"></path><path d="m249.639 252.37c-.032 3.631-5.27 4.056-5.951.49-.377-1.973-.807-3.944-1.291-5.91-2.24-9.07-10.37-15.51-19.7-15.63-11.855-.161-23.589 1.994-34.557 6.323-1.892.747-3.95-.541-4.104-2.569-.431-5.669-1.002-11.302-1.709-16.884.606 0 17.95-11.229 44.37-10.87 9.33.12 17.46 6.56 19.7 15.63 2.426 9.84 3.325 20.124 3.242 29.42z" fill="#ffbfcb"></path><path d="m129.197 123.319c23.35-44.78 66.98-72.16 115.91-76.67 20.99-1.93 40.88 9.94 49.2 29.3 7.61 17.7 11.78 36.35 12.75 55.3-56.467-30.966-120.712-32.542-177.86-7.93z" fill="#ffa4b8"></path><path d="m248.09 61.269c-25.582 7.409-52.3 23.189-71.639 46.197-1.121 1.334-2.653 2.249-4.363 2.584-14.554 2.855-29.048 7.306-42.89 13.268 23.574-45.209 68.082-72.658 116.283-76.703 8.96-.751 11.245 12.153 2.609 14.654z" fill="#ffbfcb"></path><g><path d="m474.642 137.295c1.647-22.51-22.893-37.376-41.979-25.413-26.827 16.813-44.628 42.369-50.689 71.937-30.599-36.735-69.33-64.772-115.521-77.843-.677-.29-1.391-.488-2.124-.583-37.948-10.298-77.823-9.303-115.751 2.313 22.94-30.068 57.915-49.465 97.266-53.089 17.601-1.625 34.125 8.22 41.114 24.49 1.722 4.007 3.286 8.141 4.65 12.287 1.381 4.197 5.905 6.479 10.1 5.098 4.197-1.381 6.48-5.903 5.099-10.1-1.51-4.589-3.242-9.165-5.147-13.601-9.734-22.66-32.755-36.368-57.283-34.107-51.697 4.761-96.663 34-120.906 78.408-50.137 22.236-90.777 62.021-115.833 110.861-12.497 24.36-9.472 53.942 7.708 75.363 22.76 28.377 49.667 50.813 79.976 66.684 19.669 10.3 40.567 17.208 62.106 22.096 6.242 1.416 18.844 3.35 30.646 4.205 30.763 2.229 61.454-1.448 90.811-10.09-1.947 15.355-8.297 26.673-18.664 33.055-15.96 9.825-41.17 8.124-65.789-4.437-3.935-2.008-8.753-.445-10.762 3.49s-.445 8.754 3.49 10.762c24.956 12.733 57.813 18.36 81.449 3.81 11.649-7.172 25.372-21.985 26.794-52.119 35.811-13.057 69.706-33.76 99.152-61.201 3.232-3.012 3.411-8.075.398-11.307-3.012-3.232-8.074-3.412-11.307-.398-7.518 7.007-15.349 13.531-23.427 19.593 5.733-25.192 8.738-52.387 8.738-79.839 0-4.418-3.582-8-8-8s-8 3.582-8 8c0 32.738-4.444 65.03-12.842 93.627-20.622 12.841-41.674 22.245-62.843 28.749 7.305-18.284 12.879-38.412 16.606-60.074.749-4.354-2.173-8.491-6.528-9.241-4.352-.75-8.491 2.173-9.241 6.528-4.316 25.086-11.201 47.927-20.474 67.968-28.769 6.367-57.86 7.535-86.783 3.085 19.097-45.066 25.949-101.85 20.076-155.411 11.149-5.105 23.382-7.691 35.656-7.538 5.723.078 10.675 4.004 12.042 9.549 4.114 16.684 4.1 34.351-.041 51.091-1.195 4.831-5.357 8.565-10.359 9.292-4.372.635-7.402 4.695-6.767 9.067.636 4.375 4.697 7.401 9.067 6.767 11.548-1.678 20.808-10.033 23.59-21.285 4.761-19.249 4.776-39.569.043-58.763-3.109-12.611-14.36-21.542-27.361-21.717-13.05-.173-26.029 2.269-38.1 7.1-3.161-19.608-8.067-38.561-14.782-56.072-1.582-4.125-6.209-6.187-10.334-4.605s-6.188 6.208-4.605 10.334c7.405 19.312 12.515 40.456 15.374 62.279.01.539.077 1.079.199 1.615 6.717 53.441-.04 110.776-19.777 155.22-49.331-11.349-92.737-39.226-126.948-81.88-13.239-16.507-15.576-39.292-5.954-58.048 24.477-47.712 64.153-84.541 110.284-104.452.091-.037.18-.076.269-.116 41.552-17.866 85.416-20.734 125.205-10.617 10.431 22.586 18.043 49.487 22.057 78.084.561 3.999 3.987 6.889 7.912 6.889 4.863 0 8.609-4.292 7.933-9.113-3.487-24.841-9.588-48.533-17.83-69.539 39.131 14.739 74.523 42.684 103.532 82.51 4.494 6.167 14.287 3.103 14.464-4.524.759-32.537 17.328-61.309 45.459-78.939 8.013-5.019 18.219 1.219 17.526 10.687-3.217 43.944 25.575 60.461-24.981 109.639-3.232 3.144-3.224 8.333 0 11.469 50.509 49.133 21.77 65.775 24.981 109.639.693 9.464-9.512 15.709-17.521 10.69-9.501-5.954-17.783-13.251-24.614-21.69-2.78-3.434-7.818-3.963-11.251-1.184-3.434 2.78-3.964 7.818-1.184 11.252 7.946 9.813 17.553 18.285 28.554 25.179 19.12 11.981 43.619-2.942 41.974-25.416-2.749-37.577 24.894-62.831-24.098-114.206 48.948-51.325 21.358-76.723 24.1-114.204z"></path><path d="m101.997 218.019v17c0 4.418 3.582 8 8 8s8-3.582 8-8v-17c0-4.418-3.582-8-8-8s-8 3.581-8 8z"></path></g></svg>