<svg width="29" height="29" viewBox="0 0 29 29" fill="none" xmlns="http://www.w3.org/2000/svg">
<path d="M25.2017 9.37039H19.6292V3.79864C19.6292 1.70086 17.9277 0 15.8299 0H13.1705C11.0722 0 9.37147 1.7008 9.37147 3.79864V9.37039H3.79904C1.70078 9.37039 0 11.0719 0 13.1705V15.83C0 17.9277 1.70078 19.6286 3.79904 19.6286H9.37097V25.2014C9.37097 27.2984 11.0717 29 13.17 29H15.8294C17.9272 29 19.6287 27.2984 19.6287 25.2014L19.629 19.6291H25.2014C27.2992 19.6291 29 17.9281 29 15.8305V13.1707C29.0002 11.0722 27.2992 9.37039 25.2017 9.37039H25.2017Z" fill="#FF0000"/>
</svg>
