<svg width="41" height="38" viewBox="0 0 41 38" fill="none" xmlns="http://www.w3.org/2000/svg">
<path d="M10.217 19.6927L13.0196 16.1895C13.1831 15.985 13.4399 15.873 13.7028 15.9116C13.9632 15.9428 14.1891 16.1079 14.2987 16.3456L17.9026 24.1547L20.4452 12.712C20.5179 12.3855 20.7953 12.1453 21.1284 12.1213C21.4563 12.0925 21.7714 12.2933 21.8919 12.6045L25.1534 21.0857L27.3711 17.7582C27.6522 17.3363 28.3504 17.3363 28.6315 17.7582L29.9214 19.6935H38.3141C42.3723 14.1689 40.9954 7.48934 38.0776 4.394C35.3297 1.47781 32.3211 0 29.1345 0C25.5724 0 22.3494 2.1451 20.4274 5.69821C18.5073 2.1451 15.2926 0 11.7439 0C8.57413 0 5.65104 1.43527 2.80688 4.38791C-0.147863 7.45471 -1.54776 14.127 2.56146 19.6935L10.217 19.6927Z" fill="#2E2E2E"/>
<path d="M29.5174 21.2076C29.2643 21.2076 29.0281 21.0811 28.8871 20.8705L28.0024 19.5436L25.6029 23.1429C25.446 23.3794 25.1726 23.5057 24.8894 23.4755C24.6083 23.4444 24.3674 23.2589 24.2659 22.9945L21.3801 15.4918L18.895 26.6735C18.8245 26.9907 18.5595 27.2272 18.2362 27.262C18.209 27.2649 18.1826 27.2665 18.1551 27.2665C17.8626 27.2665 17.5924 27.0961 17.4674 26.8264L13.4365 18.0922L11.1725 20.9228C11.0293 21.1024 10.8111 21.2071 10.5815 21.2071H3.84354C3.91327 21.2789 3.97166 21.3547 4.04351 21.4261C6.82262 24.1779 19.7542 37.506 19.8847 37.6406C20.0268 37.7875 20.2231 37.8707 20.4276 37.8707C20.6321 37.8707 20.8283 37.788 20.9707 37.6411C21.101 37.5064 34.0568 24.1784 36.837 21.4259C36.9088 21.3546 36.9672 21.279 37.0369 21.2069L29.5174 21.2076Z" fill="#2E2E2E"/>
</svg>
