<!-- icon666.com - MILLIONS vector ICONS FREE --><svg viewBox="0 0 64 64" xmlns="http://www.w3.org/2000/svg"><g id="Cat"><g fill="#748a95"><path id="path97198-1" d="m13.74 33.25v13.81h-1.74a2.83 2.83 0 0 0 -2.83 2.83v1.84h36.61a3.45 3.45 0 0 0 3.45-3.45v-10.71a13.11 13.11 0 0 0 -13.11-13.11h-6.12z" fill="#748a95" style="fill: rgb(98, 120, 132);"></path><path id="rect88776-8" d="m8 14.71v11.06a7.72 7.72 0 0 0 7.74 7.74h6.54a7.72 7.72 0 0 0 7.72-7.74v-11.06a2.43 2.43 0 0 0 -3.94-1.91l-4.22 3.32h-5.7l-4.2-3.32a2.43 2.43 0 0 0 -3.94 1.91z" fill="#748a95" style="fill: rgb(98, 120, 132);"></path><path id="path98929-0" d="m49.23 39.66h2.87a3.92 3.92 0 0 0 3.9-3.9v-13a10.51 10.51 0 0 0 -10.48-10.48h-5.75a2.46 2.46 0 0 0 0 4.91h5.75a5.53 5.53 0 0 1 5.57 5.56v12h-2.16z" fill="#748a95" style="fill: rgb(98, 120, 132);"></path></g><path id="circle122739-1" d="m26.05 23.1a2.41 2.41 0 1 1 -2.41-2.41 2.41 2.41 0 0 1 2.41 2.41z" fill="#ac80dd" style="fill: rgb(45, 171, 43);"></path><path id="path403670" d="m32.12 24.46a13.11 13.11 0 0 1 13.11 13.11v10.71a3.45 3.45 0 0 1 -3.45 3.45h4a3.45 3.45 0 0 0 3.45-3.45v-10.71a13.11 13.11 0 0 0 -13.11-13.11z" fill="#617880" style="fill: rgb(89, 105, 110);"></path><path id="path406088" d="m27.59 12.28h-.27a2.38 2.38 0 0 0 -1.06.38 2.42 2.42 0 0 1 1.14 2v11.11a7.72 7.72 0 0 1 -7.74 7.74h2.62a7.72 7.72 0 0 0 7.72-7.74v-11.06a2.43 2.43 0 0 0 -2.41-2.43z" fill="#617880" style="fill: rgb(89, 105, 110);"></path><path id="path119437-5" d="m16.79 23.1a2.41 2.41 0 1 1 -2.41-2.41 2.41 2.41 0 0 1 2.41 2.41z" fill="#ac80dd" style="fill: rgb(45, 171, 43);"></path><path d="m12.74 34v12.06h-.74a3.83 3.83 0 0 0 -3.82 3.83v1.84a1 1 0 0 0 1 1h36.6a4.45 4.45 0 0 0 4.45-4.45v-7.62h1.87a4.91 4.91 0 0 0 4.9-4.9v-13a11.48 11.48 0 0 0 -11.48-11.48h-5.75a3.46 3.46 0 0 0 0 6.91h5.75a4.52 4.52 0 0 1 4.57 4.56v11h-.4a14.12 14.12 0 0 0 -13.57-10.29h-5.12v-8.75a3.44 3.44 0 0 0 -5.54-2.71l-3.95 3.11h-5l-4-3.11a3.44 3.44 0 0 0 -5.51 2.71v11.06a8.73 8.73 0 0 0 5.74 8.23zm32.78-17.81h-5.75a1.46 1.46 0 0 1 0-2.91h5.75a9.49 9.49 0 0 1 9.48 9.47v13a2.9 2.9 0 0 1 -2.9 2.9h-1.87v-1.08a13.83 13.83 0 0 0 -.13-1.83h1a1 1 0 0 0 1-1v-12a6.5 6.5 0 0 0 -6.58-6.55zm-9.4 9.27a12.12 12.12 0 0 1 12.11 12.11v10.71a2.45 2.45 0 0 1 -2.45 2.45h-15v-.84a1.83 1.83 0 0 1 1.83-1.83h7.85a1 1 0 0 0 0-2h-4.88v-3.35a6 6 0 0 1 6-6 1 1 0 0 0 0-2 8 8 0 0 0 -8 8v3.35h-.92a3.83 3.83 0 0 0 -3.83 3.83v.84h-11.23v-.84a1.83 1.83 0 0 1 1.82-1.83h1.75a1 1 0 0 0 1-1v-9.06a1 1 0 0 0 -1-1h-2.49a1 1 0 0 0 0 2h1.49v7.09h-.75a3.83 3.83 0 0 0 -3.82 3.83v.84h-5.43v-.84a1.83 1.83 0 0 1 1.83-1.86h1.75a1 1 0 0 0 1-1v-12.65a8.26 8.26 0 0 0 1 .1h6.54a8.75 8.75 0 0 0 8.71-8.74v-.31zm-27.12-10.75a1.44 1.44 0 0 1 .31-.89 1.42 1.42 0 0 1 1.13-.54 1.44 1.44 0 0 1 .88.3l4.22 3.33a1 1 0 0 0 .62.21h5.7a1 1 0 0 0 .62-.21l4.22-3.33a1.46 1.46 0 0 1 .88-.3 1.43 1.43 0 0 1 1.42 1.43v11.06a6.74 6.74 0 0 1 -6.74 6.74h-6.52a6.74 6.74 0 0 1 -6.74-6.74z" fill="#172335"></path><path d="m14.38 26.51a3.41 3.41 0 1 0 -3.38-3.41 3.41 3.41 0 0 0 3.38 3.41zm0-4.82a1.41 1.41 0 1 1 -1.38 1.41 1.41 1.41 0 0 1 1.38-1.41z" fill="#172335"></path><path d="m23.64 26.51a3.41 3.41 0 1 0 -3.41-3.41 3.41 3.41 0 0 0 3.41 3.41zm0-4.82a1.41 1.41 0 1 1 -1.41 1.41 1.41 1.41 0 0 1 1.41-1.41z" fill="#172335"></path></g></svg>