<svg width="182" height="123" viewBox="0 0 182 123" fill="none" xmlns="http://www.w3.org/2000/svg">
<path d="M44.2197 89L44.6775 88.7989L44.5461 88.5H44.2197V89ZM58.5 121.5L58.0422 121.701L58.6071 122.987L58.9819 121.633L58.5 121.5ZM67.5 89V88.5H67.1197L67.0181 88.8666L67.5 89ZM1.5 45C1.5 20.9756 20.9756 1.5 45 1.5V0.5C20.4233 0.5 0.5 20.4233 0.5 45H1.5ZM1.5 47.785V45H0.5V47.785H1.5ZM42.215 88.5C19.7287 88.5 1.5 70.2713 1.5 47.785H0.5C0.5 70.8236 19.1764 89.5 42.215 89.5V88.5ZM44.2197 88.5H42.215V89.5H44.2197V88.5ZM58.9578 121.299L44.6775 88.7989L43.7619 89.2011L58.0422 121.701L58.9578 121.299ZM67.0181 88.8666L58.0181 121.367L58.9819 121.633L67.9819 89.1334L67.0181 88.8666ZM68.7103 88.5H67.5V89.5H68.7103V88.5ZM137 88.5H68.7103V89.5H137V88.5ZM180.5 45C180.5 69.0244 161.024 88.5 137 88.5V89.5C161.577 89.5 181.5 69.5767 181.5 45H180.5ZM137 1.5C161.024 1.5 180.5 20.9756 180.5 45H181.5C181.5 20.4233 161.577 0.5 137 0.5V1.5ZM45 1.5H137V0.5H45V1.5Z" fill="#2E2E2E"/>
</svg>
