<svg width="32" height="35" viewBox="0 0 32 35" fill="none" xmlns="http://www.w3.org/2000/svg">
<path d="M11.8969 16.6305C14.7915 16.6305 16.7363 13.7809 16.7363 9.53915C16.7363 5.39981 15.8825 0 13.318 0C10.4544 0 6.78999 4.52473 6.78999 8.8738C6.79023 13.2233 9.03353 16.6305 11.8972 16.6305H11.8969Z" fill="#FF0000"/>
<path d="M21.5425 16.6304C24.0945 16.6304 26.0937 13.2235 26.0937 8.87441C26.0937 4.5254 23.0707 0.000610352 20.5188 0.000610352C18.8421 0.000610352 17.9002 3.8726 17.9002 8.87441C17.9005 13.8759 19.1943 16.6304 21.5425 16.6304Z" fill="#FF0000"/>
<path d="M31.9466 15.3245C31.7298 12.7955 30.6632 12.2646 29.8063 12.2646C28.3895 12.2646 26.9199 13.8998 26.7962 14.0453C23.3194 17.4235 23.1689 19.5359 26.0962 23.874C26.7348 24.8208 27.4449 25.3003 28.2061 25.3003C28.7773 25.3003 29.3147 25.032 29.8014 24.5013C31.2801 22.8896 32.2422 18.7733 31.9466 15.3246V15.3245Z" fill="#FF0000"/>
<path d="M5.12371 13.2632C4.39107 12.506 3.66483 12.1223 2.96508 12.1223C0.880459 12.1223 0.222781 15.3134 0.148009 15.7201C-0.294566 19.3096 0.266079 22.2886 1.6866 23.8956C2.36012 24.6567 3.18832 25.0594 4.08286 25.0594C5.04425 25.0594 6.01851 24.5861 6.90069 23.6908C9.56701 20.9844 8.91948 17.1831 5.12371 13.2633V13.2632Z" fill="#FF0000"/>
<path d="M16.2825 17.8198C13.7702 17.8198 12.152 20.3374 11.8771 20.7981C5.90013 27.6232 6.13529 30.9309 6.83301 32.8262C7.13004 33.6322 7.76418 34.0758 8.61867 34.0758C9.68671 34.0758 11.0778 33.3812 12.8375 32.3381C15.0159 31.0475 17.9006 30.4918 20.8039 33.583C21.42 34.2391 22.033 34.8285 22.9432 34.8285C23.3965 34.8285 23.8744 34.672 24.4051 34.349C25.4402 33.7198 26.069 32.8946 26.2736 31.8953C26.7967 29.3463 24.5296 25.9233 21.0108 20.9906C19.5115 18.8867 17.9202 17.8198 16.2826 17.8198L16.2825 17.8198Z" fill="#FF0000"/>
</svg>
