<!-- icon666.com - MILLIONS vector ICONS FREE --><svg version="1.1" id="Capa_1" xmlns="http://www.w3.org/2000/svg" xmlns:xlink="http://www.w3.org/1999/xlink" x="0px" y="0px" viewBox="0 0 512 512" style="enable-background:new 0 0 512 512;" xml:space="preserve"><g><g><path d="M256,60c-41.355,0-75,33.645-75,75s33.645,75,75,75s75-33.645,75-75S297.355,60,256,60z M256,180 c-24.813,0-45-20.187-45-45s20.187-45,45-45s45,20.187,45,45S280.813,180,256,180z"></path></g></g><g><g><circle cx="256" cy="135" r="15"></circle></g></g><g><g><path d="M497,482H331v-31h166c8.284,0,15-6.716,15-15c0-20.038-8.021-38.915-22.588-53.153 c-11.067-10.818-24.819-17.903-39.678-20.61c-5.573-29.927-28.98-53.665-58.734-59.729V135C391,60.561,330.439,0,256,0 c-15.336,0-135.846,0-151,0C47.103,0,0,47.103,0,105c0,8.284,6.716,15,15,15h16.078c6.666,45.964,43.5,82.407,89.922,88.949V256 c0,68.894,35.913,129.557,90,164.253V482H15c-8.284,0-15,6.716-15,15s6.716,15,15,15h482c8.284,0,15-6.716,15-15 S505.284,482,497,482z M376,331c19.557,0,36.239,12.539,42.43,30c0,0-45.095,0-45.638,0c-22.791,0-41.38-18.337-41.785-41.033 c2.174-11.104-5.866-19.171-15.007-18.964c-7.098,0.16-15,5.202-15,18.205C301,358.794,333.206,391,372.792,391 c72.323,0,51.204,0,63.208,0c19.59,0,36.791,12.718,43.265,30H372.79C316.663,421,271,375.337,271,319.21 c0-23.665,16.049-44.121,37.332-47.583C337.123,266.942,361,289.09,361,316C361,324.284,367.716,331,376,331z M121,178.515 C91.174,172.596,67.601,149.406,61.527,120H121V178.515z M121,90H31.507C38.477,55.809,68.781,30,105,30h16V90z M151,256V30h105 c57.897,0,105,47.103,105,105v121.003c-16.304-12.231-36.994-17.321-57.484-13.987C267.876,247.813,241,280.999,241,319.21 c0,39.43,17.411,74.865,44.942,99.038C209.264,404.076,151,336.718,151,256z M301,482h-60v-46.009 c18.711,7.826,38.889,12.824,60,14.437V482z"></path></g></g></svg>