<svg width="34" height="26" viewBox="0 0 34 26" fill="none" xmlns="http://www.w3.org/2000/svg">
<path d="M30.9139 8.24446C32.1893 8.24446 33.2326 7.2009 33.2326 5.92576V2.3187C33.2326 1.04328 32.1891 0 30.9139 0C29.6385 0 28.5952 1.04355 28.5952 2.3187V5.92576C28.595 7.20064 29.6388 8.24446 30.9139 8.24446Z" fill="white"/>
<path d="M3.08701 8.24446C4.36242 8.24446 5.4057 7.2009 5.4057 5.92576V2.3187C5.4057 1.04328 4.36215 0 3.08701 0C1.81159 0 0.768311 1.04355 0.768311 2.3187V5.92576C0.767784 7.20064 1.81159 8.24446 3.08701 8.24446Z" fill="white"/>
<path d="M17.0001 22.2008C18.7681 24.4322 21.4905 25.8189 24.4721 25.8189C29.6247 25.8189 33.8991 21.6297 33.9996 16.4803C34.022 15.3422 33.1176 14.4009 31.9792 14.379C30.8316 14.3434 29.8998 15.2607 29.8779 16.3994C29.8205 19.32 27.395 21.6964 24.4716 21.6964C22.0042 21.6964 19.8484 20.0218 19.2299 17.6275C19.1271 17.2274 19.0721 16.8166 19.0652 16.4071C19.065 16.3757 19.0623 16.3444 19.0602 16.313C19.0602 16.3041 19.061 16.2948 19.061 16.2859V15.7151L23.2436 9.1685C24.0798 7.85989 23.1397 6.14355 21.5866 6.14355L12.4139 6.14382C10.8608 6.14382 9.92107 7.85962 10.757 9.16876L14.939 15.7148V16.3004C14.9364 16.3359 14.9348 16.371 14.9345 16.4066C14.9282 16.8169 14.8726 17.2274 14.7709 17.6238C14.1514 20.0215 11.9957 21.6959 9.52843 21.6959C6.60468 21.6959 4.17953 19.3197 4.12205 16.3989C4.09965 15.2607 3.16101 14.3566 2.02078 14.3785C0.88265 14.4009 -0.0217296 15.3419 0.000397524 16.4798C0.101589 21.6289 4.37611 25.8184 9.52857 25.8184C12.5097 25.8184 15.2316 24.4328 16.9999 22.2008L17.0001 22.2008Z" fill="white"/>
</svg>
