<svg width="43" height="38" viewBox="0 0 43 38" fill="none" xmlns="http://www.w3.org/2000/svg">
<path d="M37.3711 13.106V6.2235C37.3711 5.41823 36.7263 4.76294 35.9278 4.76294H32.9372C32.1388 4.76294 31.4891 5.41818 31.4891 6.2235V7.95933L23.0832 0.596362C22.1759 -0.198787 20.8268 -0.198787 19.9142 0.596362L0.831466 17.3072C0.072834 17.9725 -0.200069 19.0478 0.15205 20.0032C0.509049 20.9536 1.40675 21.589 2.4134 21.589H6.07337V36.5946C6.07337 37.3699 6.69813 38 7.46676 38H15.6893V27.086C15.6893 25.5456 16.9291 24.2952 18.4564 24.2952H24.5466C26.0739 24.2952 27.3137 25.5456 27.3137 27.086V37.9955H35.5314C36.3 37.9955 36.9248 37.3703 36.9248 36.5902V21.5845H40.5847C41.9186 21.5845 43 20.4942 43 19.1436C43 18.3732 42.6478 17.6879 42.0926 17.2378L37.3711 13.106Z" fill="#2E2E2E"/>
</svg>
