<!-- icon666.com - MILLIONS vector ICONS FREE --><svg id="Capa_1" enable-background="new 0 0 583.869 583.869" viewBox="0 0 583.869 583.869" xmlns="http://www.w3.org/2000/svg"><g><g><path d="m116.354 219.778c41.25-14.76 106.61-23.561 175.58-23.561s134.33 8.801 175.58 23.561c23.092-8.701 36.1-18.732 36.1-28.347 0-24.901-86.936-52.645-211.68-52.645s-211.68 27.744-211.68 52.645c.001 9.615 13.004 19.646 36.1 28.347z"></path><path d="m131.559 224.879c37.574 11.228 93.535 19.196 160.375 19.196s122.801-7.969 160.375-19.196c-40.393-12.037-98.829-19.091-160.375-19.091s-119.987 7.055-160.375 19.091z"></path><path d="m549.391 214.532c-25.006 39.216-129.123 67.83-257.457 67.83s-232.451-28.615-257.457-67.83l-34.477 161.548c.89 47.83 134.22 88.146 291.934 88.146s291.044-40.316 291.934-88.146zm-257.327 215.954c-46.615-16.291-74.516-48.677-71.094-76.507 1.776-14.425 13.065-36.602 32.812-38.254 14.946-1.249 30.668 9.6 38.282 27.323 7.614-17.722 23.336-28.577 38.282-27.323 19.747 1.651 31.041 23.829 32.812 38.254 3.427 27.83-24.475 60.216-71.094 76.507z"></path><path d="m291.934 272.791c151.727 0 253.652-39.594 253.652-76.574s-101.925-76.574-253.652-76.574-253.652 39.593-253.652 76.574 101.925 76.574 253.652 76.574zm0-143.577c107.257 0 221.252 21.805 221.252 62.217s-113.995 62.217-221.252 62.217-221.251-21.805-221.251-62.217 113.995-62.217 221.251-62.217z"></path></g></g></svg>