<!-- icon666.com - MILLIONS vector ICONS FREE --><svg id="Capa_1" enable-background="new 0 0 512 512" viewBox="0 0 512 512" xmlns="http://www.w3.org/2000/svg"><g><path d="m285.063 314.511h38.745c36.005 0 65.298-29.292 65.298-65.298v-38.745h-38.746c-36.005 0-65.298 29.292-65.298 65.298v38.745zm-42.084 21.114v29.595c0 12.211-9.935 22.146-22.146 22.146-12.212 0-22.146-9.935-22.146-22.146h-30c0 28.753 23.393 52.146 52.146 52.146 14.528 0 27.681-5.978 37.146-15.595 9.465 9.617 22.618 15.595 37.146 15.595 28.753 0 52.146-23.393 52.146-52.146h-30c0 12.211-9.935 22.146-22.146 22.146-12.212 0-22.146-9.935-22.146-22.146v-29.595zm-16.041-21.114v-38.745c0-36.005-29.293-65.298-65.298-65.298h-38.745v38.745c0 36.006 29.293 65.298 65.298 65.298zm88.125-38.745c0-19.463 15.835-35.298 35.298-35.298h8.745v8.745c0 19.463-15.835 35.298-35.298 35.298h-8.745zm-118.125 8.745h-8.745c-19.463 0-35.298-15.835-35.298-35.298v-8.745h8.745c19.463 0 35.298 15.834 35.298 35.298z"></path><path d="m512 457.634-69.401-42.956c12.874-18.811 22.568-39.358 28.807-61.017h40.594v-30h-34.284c1.291-9.499 1.961-19.141 1.961-28.885 0-27.733-5.321-54.659-15.474-79.697l27.992-199.893-22.152-15.186-153.611 85.538c-38.821-10.513-80.788-10.621-119.659-.324l-153.029-85.214-22.153 15.185 27.54 196.661c-11.026 25.946-16.808 54-16.808 82.929 0 9.744.671 19.386 1.961 28.885h-34.284v30h40.594c6.236 21.651 15.926 42.191 28.792 60.995l-69.386 42.895 15.849 25.475 72.283-44.687c42.627 46.875 104.614 73.662 167.868 73.662 59.579 0 115.637-22.482 157.845-63.306 3.467-3.354 6.794-6.807 10.004-10.336l72.384 44.75zm-53.694-416.76-18.256 130.365c-22.015-30.792-52.26-55.909-86.485-72.041zm-402.825 0 103.92 57.867c-33.855 15.761-63.876 40.294-85.955 70.417zm200.519 440.339c-55.747 0-106.06-22.799-141.43-59.209l23.967-14.806-15.844-25.475-27.433 16.949c-9.664-13.809-17.454-28.927-23.031-45.011h48.686v-30h-56.266c-1.528-9.417-2.327-19.062-2.327-28.885 0-76.641 48.296-142.619 117.125-171.241v57.487h30v-67.225c10.226-2.438 20.764-4.103 31.553-4.902v94.511h30v-94.511c10.774.798 21.298 2.46 31.511 4.893v67.235h30v-57.504c68.852 28.612 117.167 94.602 117.167 171.259 0 9.823-.799 19.468-2.327 28.885h-56.266v30h48.686c-5.58 16.096-13.378 31.224-23.051 45.041l-26.503-16.362-15.844 25.475 23.03 14.217c-35.369 36.392-85.67 59.179-141.403 59.179z"></path></g></svg>