<svg width="264" height="293" viewBox="0 0 264 293" fill="none" xmlns="http://www.w3.org/2000/svg">
<path d="M95.9298 31.821C78.255 32.0756 65.5951 41.6855 61.4745 46.4586C46.9209 46.4586 16.4459 47.4769 10.9752 51.55C5.5044 55.623 15.1834 72.7639 20.7068 80.8252C21.1452 128.663 21.2703 237.334 21.2703 262.791C21.2703 288.248 33.9453 290.95 39.9071 292.435H85.4091C90.4064 292.435 96.7456 290.127 96.7456 279.945C96.7456 271.798 89.8842 265.536 82.3367 265.536H58.3218H45.2852V220.838H102.505C102.33 230.49 102.084 253.868 102.505 270.16C102.926 286.452 114.253 291.798 119.864 292.435H160.106C163.613 290.844 170.849 289.364 170.849 279.945C170.849 270.526 161.262 266.49 156.44 265.536H126.25V220.838H192.119V254.557C192.119 262.951 186.63 264.959 181.141 271.711C177.1 276.682 179.547 292.435 198.294 292.435C213.292 292.435 216.894 279.918 216.82 273.66V220.838H237.404V254.557C237.404 262.513 228.484 264.104 225.054 273.66C221.934 282.349 226.965 292.435 242.956 292.435C258.948 292.435 263.647 279.918 263.998 273.66C263.91 202.7 263.787 54.9866 263.998 31.821C264.208 8.65535 248.655 0.954644 240.852 0H32.8056C28.8603 0.21214 20.9172 2.86389 20.7068 11.7738C20.4964 20.6836 28.685 24.3961 32.8056 25.1386H233.751C237.118 27.6842 235.154 30.6542 233.751 31.821C195.175 31.7149 113.605 31.5664 95.9298 31.821Z" fill="#2E2E2E"/>
<ellipse cx="9.73164" cy="50.8979" rx="9.73164" ry="9.72953" fill="#0000FF"/>
<rect x="89.198" y="38.4238" width="61.7525" height="119.388" rx="12.1559" fill="#0000FF"/>
<circle cx="70.8986" cy="53.7759" r="6.68854" fill="white"/>
</svg>
